<?xml version="1.0" encoding="UTF-8" standalone="no" ?>
<!DOCTYPE svg PUBLIC "-//W3C//DTD SVG 1.1//EN" "http://www.w3.org/Graphics/SVG/1.1/DTD/svg11.dtd">
<svg xmlns="http://www.w3.org/2000/svg" xmlns:xlink="http://www.w3.org/1999/xlink" version="1.1" width="32" height="32" viewBox="0 0 32 32" xml:space="preserve">
<desc>Created with Fabric.js 5.2.4</desc>
<defs>
</defs>
<rect x="0" y="0" width="100%" height="100%" fill="transparent"></rect>
<g transform="matrix(1 0 0 1 16 16)" id="ac57b9b1-1d67-404b-a946-c6fc358da43f"  >
<rect style="stroke: none; stroke-width: 1; stroke-dasharray: none; stroke-linecap: butt; stroke-dashoffset: 0; stroke-linejoin: miter; stroke-miterlimit: 4; fill: rgb(255,255,255); fill-rule: nonzero; opacity: 1; visibility: hidden;" vector-effect="non-scaling-stroke"  x="-16" y="-16" rx="0" ry="0" width="32" height="32" />
</g>
<g transform="matrix(Infinity NaN NaN Infinity 0 0)" id="2bb7dd08-aaff-4265-8f77-be074401b252"  >
</g>
<g transform="matrix(1.05 0 0 1.05 16 16)" id="8d664bd7-7fda-4f10-90b4-f6a520f0d89d"  >
<path style="stroke: rgb(0,0,0); stroke-width: 0; stroke-dasharray: none; stroke-linecap: butt; stroke-dashoffset: 0; stroke-linejoin: miter; stroke-miterlimit: 4; fill: rgb(255,255,255); fill-rule: nonzero; opacity: 1;" vector-effect="non-scaling-stroke"  transform=" translate(-16, -16)" d="M 16 1.375 C 7.718 1.375 1.0039999999999996 8.089 1.0039999999999996 16.371000000000002 C 1.0039999999999996 22.956000000000003 5.249 28.551000000000002 11.152 30.566000000000003 L 11.258 30.597 C 12.008 30.738 12.283 30.275000000000002 12.283 29.876 C 12.283 29.52 12.270999999999999 28.576 12.264 27.327 C 8.093 28.232000000000003 7.212999999999999 25.315 7.212999999999999 25.315 C 6.924999999999999 24.39 6.334999999999999 23.630000000000003 5.559999999999999 23.131 L 5.543999999999999 23.122 C 4.185999999999998 22.192 5.648999999999999 22.211 5.648999999999999 22.211 C 6.635999999999999 22.349999999999998 7.462999999999999 22.929 7.937999999999999 23.741 L 7.945999999999999 23.756 C 8.499999999999998 24.751 9.546 25.413 10.747 25.413 C 11.323 25.413 11.863 25.261 12.329 24.994 L 12.313 25.002 C 12.385 24.211 12.734 23.512999999999998 13.262 22.997 L 13.263 22.996 C 9.933 22.621 6.4319999999999995 21.331 6.4319999999999995 15.585999999999999 C 6.4319999999999995 15.559 6.430999999999999 15.527999999999999 6.430999999999999 15.496999999999998 C 6.430999999999999 13.975999999999999 7.017999999999999 12.591999999999999 7.977999999999999 11.558999999999997 L 7.974999999999999 11.562999999999997 C 7.7719999999999985 11.020999999999997 7.653999999999999 10.394999999999998 7.653999999999999 9.741999999999997 C 7.653999999999999 8.964999999999998 7.819999999999999 8.225999999999997 8.119 7.559999999999997 L 8.105 7.593999999999997 C 8.105 7.593999999999997 9.361 7.191999999999997 12.229 9.130999999999997 C 13.353 8.809999999999997 14.643999999999998 8.624999999999996 15.978 8.624999999999996 C 17.312 8.624999999999996 18.603 8.809999999999997 19.826999999999998 9.154999999999996 L 19.726999999999997 9.130999999999997 C 22.575999999999997 7.191999999999997 23.831999999999997 7.593999999999997 23.831999999999997 7.593999999999997 C 24.116999999999997 8.235999999999997 24.282999999999998 8.983999999999996 24.282999999999998 9.770999999999997 C 24.282999999999998 10.412999999999997 24.173 11.028999999999996 23.97 11.600999999999997 L 23.982 11.562999999999997 C 24.935 12.594999999999997 25.52 13.978999999999997 25.52 15.499999999999996 C 25.52 15.530999999999997 25.52 15.560999999999996 25.519 15.590999999999996 L 25.519 15.585999999999995 C 25.519 21.346999999999994 22.014 22.614999999999995 18.677 22.983999999999995 C 19.309 23.630999999999993 19.698999999999998 24.515999999999995 19.698999999999998 25.492999999999995 C 19.698999999999998 25.585999999999995 19.694999999999997 25.678999999999995 19.688 25.770999999999994 L 19.689 25.758999999999993 C 19.689 27.765999999999995 19.67 29.377999999999993 19.67 29.864999999999995 C 19.67 30.258999999999993 19.932000000000002 30.726999999999993 20.701 30.576999999999995 C 26.729 28.547999999999995 30.993000000000002 22.947999999999993 30.993000000000002 16.350999999999992 C 30.993000000000002 8.078999999999992 24.287000000000003 1.3739999999999917 16.016000000000002 1.3739999999999917 C 16.01 1.3739999999999917 16.003 1.3739999999999917 15.997000000000002 1.3739999999999917 L 15.998000000000001 1.3739999999999917 z" stroke-linecap="round" />
</g>
</svg>