<?xml version="1.0" encoding="UTF-8" standalone="no" ?>
<!DOCTYPE svg PUBLIC "-//W3C//DTD SVG 1.1//EN" "http://www.w3.org/Graphics/SVG/1.1/DTD/svg11.dtd">
<svg xmlns="http://www.w3.org/2000/svg" xmlns:xlink="http://www.w3.org/1999/xlink" version="1.1" width="32" height="32" viewBox="0 0 32 32" xml:space="preserve">
<desc>Created with Fabric.js 5.2.4</desc>
<defs>
</defs>
<g transform="matrix(0 0 0 0 0 0)" id="bca77fef-eba9-4b1e-9fef-0b92f89a57d0"  >
</g>
<g transform="matrix(1 0 0 1 16 16)" id="bf00c5ed-dbc4-4a63-8edc-1c2487cd39a8"  >
<rect style="stroke: none; stroke-width: 1; stroke-dasharray: none; stroke-linecap: butt; stroke-dashoffset: 0; stroke-linejoin: miter; stroke-miterlimit: 4; fill: rgb(255,255,255); fill-rule: nonzero; opacity: 1; visibility: hidden;" vector-effect="non-scaling-stroke"  x="-16" y="-16" rx="0" ry="0" width="32" height="32" />
</g>
<g transform="matrix(0.03 0 0 0.03 16 16)"  >
<path style="stroke: rgb(0,0,0); stroke-width: 0; stroke-dasharray: none; stroke-linecap: butt; stroke-dashoffset: 0; stroke-linejoin: miter; stroke-miterlimit: 4; fill: rgb(255,255,255); fill-rule: nonzero; opacity: 1;" vector-effect="non-scaling-stroke"  transform=" translate(-512, -512)" d="M 873.386667 85.333333 L 150.613333 85.333333 C 134.20481581765233 85.10544755916185 118.37798252757062 91.40596178529873 106.61535783528188 102.84851518241703 C 94.85273314299315 114.29106857953536 88.11809672367023 129.93810675950158 87.89333300000001 146.34666700000005 L 87.89333300000001 877.653333 C 88.11809672367025 894.0618932404984 94.85273314299317 909.7089314204646 106.61535783528191 921.151484817583 C 118.37798252757065 932.5940382147012 134.20481581765233 938.8945524408381 150.613333 938.666667 L 873.386667 938.666667 C 889.7951841823476 938.8945524408381 905.6220174724293 932.5940382147013 917.3846421647181 921.151484817583 C 929.1472668570068 909.7089314204646 935.8819032763298 894.0618932404984 936.106667 877.653333 L 936.106667 146.346667 C 935.8819032763298 129.93810675950155 929.1472668570068 114.29106857953532 917.3846421647181 102.84851518241702 C 905.6220174724293 91.40596178529871 889.7951841823476 85.10544755916182 873.386667 85.333333 z M 345.173333 799.573333 L 217.173333 799.573333 L 217.173333 415.57333300000005 L 345.173333 415.57333300000005 z M 281.173333 361.813333 C 244.4132600512624 361.813333 214.613333 332.0134059487376 214.613333 295.253333 C 214.613333 258.4932600512624 244.4132600512624 228.693333 281.173333 228.693333 C 306.7524505320398 225.79242939296225 331.7310073923679 237.806561470771 345.43243565782325 259.6005367607866 C 359.13386392327857 281.39451205080223 359.13386392327857 309.1121539491976 345.43243565782336 330.90612923921327 C 331.7310073923681 352.70010452922895 306.7524505320399 364.7142366070377 281.1733330000001 361.813333 z M 806.826667 799.573333 L 678.826667 799.573333 L 678.826667 593.493333 C 678.826667 541.866666 660.48 508.16 613.973333 508.16 C 584.4941056428597 508.37581362514993 558.2712161102322 526.9361708234849 548.266667 554.666667 C 544.9277634327681 564.6950515202675 543.4809939547945 575.2564676583062 544 585.813333 L 544 799.146667 L 416 799.146667 L 416 415.146667 L 544 415.146667 L 544 469.333333 C 567.6970992216268 428.21406755561253 612.2001213973173 403.581398525689 659.626667 405.333333 C 744.96 405.333333 806.826667 460.373333 806.826667 578.56 z" stroke-linecap="round" />
</g>
</svg>