<svg class="svg-icon" style="width: 1em; height: 1em;vertical-align: middle;fill: #ffffff;overflow: hidden;" viewBox="0 0 1024 1024" version="1.1" xmlns="http://www.w3.org/2000/svg"><path d="M694.736 407.584 512 590.32 329.264 407.584l-52.208 52.208L460.32 642l-0.528 0.528 52.144 50.784 52.272-50.784-0.576-0.576 183.312-182.16L694.736 407.584zM512 16C238.064 16 16 238.064 16 512s222.064 496 496 496 496-222.064 496-496S785.936 16 512 16zM512 955.792C266.896 955.792 68.208 757.104 68.208 512 68.208 266.912 266.896 68.208 512 68.208S955.792 266.912 955.792 512C955.792 757.104 757.104 955.792 512 955.792z"  /></svg>